<svg xmlns="http://www.w3.org/2000/svg" viewBox="0 0 1172 820">
  <path fill="#fff" stroke="#382321" stroke-width="8" stroke-linejoin="round" paint-order="stroke" d="M165.54605761 236.46993704l26.09647208 42.9094274 24.59704153-17.09996512-31.2009165-40.1976792 47.40752752-9.90585666-7.80022912-27.30889952-46.19522197 15.01032386 2.08963193-47.10466138h-30.29168733l2.39270832 47.10466138-46.49829835-15.01032386-7.49715273 27.30889952 47.10445112 9.90585666-30.9137915 40.1976792 24.61299293 17.09996512 26.09647207-42.9094274zM287.01588332 336.1825135c1.49943055-3.9081077 6.60387497-9.0125749 8.39043051-11.10221616 3.90809026-5.1044672 8.10330551-9.60277892 12.01139577-14.40416838 7.49715274-8.99662344 14.99430547-18.59940236 21.90125682-28.20218128 4.19521526-5.69467122 8.08735412-11.4052939 11.692368-17.40304286 14.70718047 24.31002504 32.09419426 53.10241034 32.39727065 53.70856582 2.10558332 3.5890785 1.80250693 10.79913842 0 14.10109064h42.3030831c-5.6946458-3.30195222-14.6912291-10.51201214-16.79681241-14.10109064-.30307639-.60615548-30.30763872-51.6029731-45.3019442-76.50320216 1.49943055-3.60502996 3.30193749-7.19410846 4.80136803-10.79913842 12.90467354-30.00469626 17.99316657-62.40211152 22.49145821-94.49644904 1.80250694-11.70837164 3.30193748-23.40079182 4.21116664-35.10916346 1.19635416-3.89215624 3.89213887-8.99662344 6.30079858-11.38934244H285.81952916c0 13.7980129-1.49943054 24.59715132-6.60387496 37.485931 9.29965967-11.99549792 16.7968124-17.09996512 32.09419427-17.09996512h51.60274277c-4.49829165 38.10803794-8.6935069 77.41243538-24.29396515 112.50564738-8.1033055 17.40304286-17.40296518 33.59377476-29.11128456 48.90717636-6.30079857 8.39046796-13.19179853 16.79688738-20.68895127 24.29407358-4.21116664 4.19523398-8.4063819 8.6935457-12.90467354 12.6016534-.60615277.59020402-5.99772219 3.89215624-8.6935069 5.69467122 9.58678467 5.1044672 17.0998888 12.29857566 19.7956735 21.31115056zM591.78311774 177.17836022c-5.10444442-12.90473114-6.60387497-24.0069473-6.60387497-37.8049602H438.18719498c0 13.7980129-1.49943054 24.90022906-6.60387496 37.8049602 9.29965967-12.01144938 16.7968124-17.09996512 32.09419426-17.09996512h53.7083261v20.68904362c0 22.8105878.89327777 45.90830188-3.60501387 68.39986048-7.49715274 39.0013197-33.00342343 69.91524918-55.49488164 101.70650896 8.99658328 5.69467122 14.99430547 14.9943724 17.69009018 23.40079182 8.70945828-18.59940236 21.00797905-35.39628974 31.80706927-52.7993326 13.49487492-21.00807282 23.40068737-43.49963142 27.898979-67.793705 4.19521526-24.31002504 2.9988611-48.60409862 2.9988611-72.91412366V160.0783951h21.00797905c15.29738186 0 22.7945346 5.08851574 32.09419427 17.09996512zm-56.10103441-75.00376492c15.29738186 0 22.7945346 5.40754494 32.09419426 17.40304286-5.08849302-13.20780888-6.58792357-24.0069473-6.58792357-37.8049602h-99.01027028c0 13.7980129-1.49943055 24.59715132-6.58792358 37.8049602 9.29965967-11.99549792 16.79681241-17.40304286 32.09419427-17.40304286h47.9977289zM633.0015064 127.68097984c9.29965967-12.01144938 16.7968124-17.09996512 32.09419426-17.09996512H734.404485c15.29738186 0 22.7945346 5.08851574 32.09419426 17.09996512-5.10444441-12.90473114-6.60387496-23.70386956-6.60387496-37.50188246H639.60538136c0 13.7980129-1.49943055 24.59715132-6.60387496 37.50188246zm38.69806923 185.69094586c14.70718047-8.99662344 28.80820817-18.9024801 41.10672893-31.20105576 24.90011792-24.90022906 39.28827062-58.79708156 49.80023584-91.8006523 4.19521525-12.88877968 7.80022912-24.59715132 10.49601383-37.50188246.89327777-3.89215624 3.89213886-11.0862647 6.60387496-13.7980129H626.09455505c0 13.51088662-1.49943055 24.59715132-6.58792358 37.50188246 9.29965967-11.99549792 16.7968124-17.09996512 32.09419427-17.09996512h98.10104112c-1.19635416 0-8.6935069 29.70161852-9.90581245 32.700493-3.58906248 10.79913842-7.49715273 21.59827684-12.60159715 31.80721124-13.19179854 27.5960258-33.29054842 49.19430264-58.79681912 65.400986-13.7979513 8.6935457-28.2020554 16.1907319-42.89328448 23.40079182-3.90809026 1.78656352-9.90581244 3.5890785-15.29738186 2.69579674 4.19521526 8.99662344 4.19521526 26.70274404.89327777 39.89460146 7.49715274-8.39046796 20.0987499-18.59940236 28.50513179-23.09771408 10.79909022-6.3008267 21.59818044-12.29857566 32.09419427-18.9024801zM839.2210608 139.37340002h-34.19977758c2.99886109 3.30195222 6.60387496 10.49606068 6.60387496 14.10109064v66.90042324c0 3.60502996-3.60501387 11.10221616-6.60387496 14.10109064h34.19977758c-2.9988611-2.99887448-6.60387496-10.49606068-6.60387496-14.10109064v-66.90042324c0-3.60502996 3.60501387-10.79913842 6.60387496-14.10109064zm-9.90581244 207.89537818c-.59020139.30307774-2.08963193 1.21231096-4.19521526 2.10559272 5.4075208 7.19410846 7.80022913 19.20555784 7.80022913 30.89797802 14.1010277-15.60052788 29.39840956-29.09546304 39.60729839-47.6948654 12.60159715-22.8105878 18.88644434-48.60409862 21.59818043-74.70068718 2.69578471-23.70386956 2.08963194-47.40773912 2.08963194-71.09565722V80.27324072c0-7.19410846 1.21230554-22.79463634 2.7117361-28.7923853-14.4041041 11.99549792-17.0998888 13.19185742-32.11014566 17.3870914 5.99772219 2.7117482 8.1033055 8.40641942 8.1033055 12.01144938.3030764 26.3996663 0 87.58946686 0 105.90174294 0 38.69824196 2.9988611 80.3953584-11.99544437 116.98800764-6.60387496 16.81283884-18.00911796 34.19993024-33.6095762 43.49963142zM965.04561566 110.58101472h101.09990221c-6.30079857 17.69016914-23.40068737 65.68811228-23.40068737 66.5973455-1.49943054 3.5890785-7.80022912 10.79913842-11.99544438 13.7980129h35.09305536c-1.80250693-2.99887448-2.99886109-10.2089344-1.80250693-13.7980129.30307639-.90923322 25.5062707-72.30796818 25.80934708-73.20124994 1.19635416-3.60502996 7.49715273-10.79913842 11.69236799-13.7980129H939.53934497c0 13.7980129-1.49943055 24.59715132-6.60387497 37.50188246 9.29965967-12.01144938 16.8127638-17.09996512 32.11014566-17.09996512zm22.4914582 210.59117492c-3.89213886 6.3008267-11.99544437 11.99549792-16.19065963 13.49493516 4.49829165 8.70949716 9.29965967 31.5041335 9.88986106 39.91055292 4.80136803-11.70837164 17.70604157-27.89910354 24.61299292-39.60747518 8.99658328-14.69129466 13.49487492-31.48818204 15.88758324-48.30102088 2.9988611-22.18848086 2.40865971-53.10241034 2.40865971-67.18754952v-51.6029731c0-7.4971862 1.49943055-22.8105878 2.6957847-28.80833676-14.40410408 12.01144938-17.09988878 13.20780888-31.80706926 17.09996512 5.7105972 2.99887448 7.80022912 8.70949716 7.80022912 12.01144938v35.69936748c0 25.79351082.60615278 48.8912249-2.08963193 73.20124994-1.49943055 15.29745014-5.10444441 30.89797802-13.20774992 44.08983544zM295.90080689 670.66867824c-.60615278-.89328176-48.60388168-72.29201672-48.90695806-72.8981722-2.69578471-3.5890785-3.30193749-11.10221616-2.10558333-14.10109064h-38.09191645c5.39156941 2.99887448 14.40410409 10.51201214 16.7968124 14.10109064.60615278.60615548 48.60388168 72.00489044 48.90695807 72.8981722 2.6957847 3.60502996 3.28598609 10.79913842 2.08963193 14.10109064h38.10786784c-5.4075208-3.30195222-14.40410408-10.49606068-16.7968124-14.10109064zM142.89508552 649.0704014c13.04823604-15.88765416 25.64983319-31.48818204 37.94835395-47.39178766v104.4023057c0 7.19410846-1.49943055 22.4915586-2.6957847 28.48930756 14.1010277-11.99549792 16.7968124-13.19185742 31.48804149-17.3870914-5.6946458-2.7117482-7.80022913-8.40641942-7.80022913-12.01144938V574.08258794c22.5074096-30.307774 43.80251365-61.50882976 63.31106215-93.90624502h-67.20320101v-11.10221616c0-7.19410846 1.49943054-22.20443232 2.99886109-28.50525902-14.1010277 12.01144938-17.0998888 13.20780888-31.50399288 17.40304286 5.71059719 2.69579674 7.80022912 8.40641942 7.80022912 11.99549792v10.2089344h-46.80137474c0 13.7980129-1.19635416 24.59715132-6.30079857 37.8049602 9.29965967-12.01144938 16.8127638-17.40304286 31.80706927-17.40304286h71.39841626c-17.99316656 28.20218128-38.09191645 55.1920516-58.49374273 81.5917179-14.40410408 18.31227608-28.80820817 36.30552296-44.10559003 54.01164356-8.1033055 8.99662344-16.20661102 17.99324688-24.59704153 26.98987032-4.19521525 4.21118544-8.4063819 8.70949716-13.20774992 12.90473114 6.30079857 6.60390444 11.40524299 14.70724612 13.51082631 25.2033068 5.08849303-8.99662344 12.29852076-16.79688738 18.90239573-24.31002504 8.08735412-9.29970118 15.88758324-18.59940236 23.68781237-27.89910354h-.1435625zM372.41961896 602.26881776h34.19977759c-2.9988611-2.99887448-6.89099996-10.49606068-6.89099996-14.10109064V543.4717362c0-3.5890785 3.89213886-11.10221616 6.89099996-14.10109064h-34.19977759c2.6957847 2.99887448 6.60387496 10.51201214 6.60387496 14.10109064v44.69599092c0 3.60502996-3.90809025 11.10221616-6.60387496 14.10109064zm-8.3904305-72.8981722h-34.1997776c2.9988611 2.99887448 6.89099997 10.51201214 6.89099997 14.10109064v44.69599092c0 3.60502996-3.89213887 11.10221616-6.89099997 14.10109064h34.1997776c-2.7117361-2.99887448-6.60387497-10.49606068-6.60387497-14.10109064V543.4717362c0-3.5890785 3.89213887-11.10221616 6.60387496-14.10109064zm69.89898571 14.10109064v57.01051804c0 13.7980129-4.49829164 26.3996663-10.79909021 38.39516422-7.21002774 14.10109064-16.50968741 27.00582178-26.11242347 39.59152372-4.80136803 6.3008267-9.29965967 13.20780888-14.3881527 19.50863558 6.89099996 5.39159348 11.99544438 14.40416838 14.3881527 22.79463634 1.80250693-4.80138946 7.21002774-12.29857566 8.10330551-13.7980129 4.49829164-6.60390444 8.99658328-13.19185742 13.79795131-19.79576186 9.90581245-14.40416838 19.8116249-29.09546304 27.00570124-45.3021464 5.6946458-12.90473114 9.29965967-26.3996663 9.29965967-40.50075694l.30307639-58.49400382c0-7.21005992 1.19635416-22.50751006 2.6957847-28.80833676-14.40410408 11.99549792-17.40296518 13.20780888-32.09419426 17.40304286 5.99772219 2.69579674 7.80022912 8.40641942 7.80022912 11.99549792zM497.09567382 681.18069038h34.50285398c-2.9988611-3.30195222-6.89099997-10.51201214-6.89099997-14.10109064V455.5791916c0-3.60502996 3.89213887-11.10221616 6.89099997-14.10109064h-34.50285398c3.01481248 2.99887448 6.90695135 10.49606068 6.90695135 14.10109064v211.50040814c0 3.5890785-3.89213887 10.79913842-6.90695135 14.10109064zm66.90012463-128.71233074c7.80022912 5.71062268 15.01025686 12.90473114 20.40182627 21.00807282 2.10558332 3.30195222 4.49829164 6.60390444 5.4075208 10.49606068.89327778-10.49606068 3.60501388-22.4915586 7.19407636-31.20105576-6.30079858-6.3008267-12.90467354-12.29857566-20.0987499-17.40304286-7.80022912-5.39159348-16.49373601-9.8899052-25.4903193-13.19185742-7.21002773-2.40867046-14.70718047-2.69579674-21.61413182-4.49831172.60615278 5.99774896 0 15.29745014-1.78655554 22.79463634 12.29852076-2.392719 26.39954846 5.40754494 35.98633313 11.99549792zM632.58677029 494.27743356v65.99119002c0 3.60502996-3.60501387 10.79913842-6.60387497 14.10109064h34.1997776c-2.69578472-3.30195222-6.60387497-10.49606068-6.60387497-14.10109064v-59.69036332h97.20776335c.30307638 23.09771408.30307638 46.4985059-2.7117361 69.29314224-3.58906248 26.3996663-11.08621522 60.2965188-37.19863868 73.20124994v.30307774c-20.99202766 10.19298294-54.29852748 2.69579674-60.29624967-21.2951991-5.39156941 9.60277892-13.19179853 13.7980129-22.7945346 15.29745014 11.99544439 17.99324688 29.70148595 30.59490028 52.19294416 33.00357074 23.09761099 2.392719 44.9988678-5.40754494 60.59932605-22.50751006 19.5085485-21.59827684 26.09647208-52.49625486 29.11128456-80.69843614 2.69578471-25.50638454 2.08963194-50.99681762 2.39270832-76.8062799 1.19635416-3.5890785 3.90809026-7.80026394 5.9977222-10.19298294H625.98289531c2.9988611 2.99887448 6.60387497 10.49606068 6.60387497 14.10109064zM841.11927607 560.26862358c-6.30079858 0-13.8139027-3.5890785-17.40296518-7.19410846-1.80250693 10.49606068-7.80022912 21.2951991-17.40296518 31.20105576 6.30079857-1.1963595 21.59818043-2.10559272 28.79225678-2.10559272h95.7083328c6.30079858 0 14.40410409 4.21118544 17.40296518 7.21005992 2.69578471-10.79913842 8.39043051-21.31115056 17.3870138-31.5041335-6.2848472 1.49943724-21.59818044 2.392719-28.79225679 2.392719h-95.69238141zM1015.14892788 561.48093454c.287125-.60615548 12.58564576-44.1057869 17.0998888-60.59959654h33.8967012c.30307638 17.69016914.30307638 35.69936748.30307638 53.69261436 0 24.90022906 0 49.80045812-5.10444442 74.0945317-5.10444441 26.70274404-18.59931934 48.90717636-31.80706926 72.00489044-6.30079858 10.79913842-11.99544438 21.59827684-17.0998888 32.700493l-5.39156941 12.6016534c9.88986105 2.69579674 17.69009018 9.90585666 20.68895127 18.29632462 1.21230555-9.8899052 5.7105972-19.79576186 9.90581245-28.7923853 5.10444441-11.10221616 10.79909021-21.59827684 16.7968124-32.11028898 12.90467354-23.09771408 24.00684015-46.19542816 28.80820818-72.59509446 4.49829164-25.2033068 4.19521525-50.69373988 4.19521525-76.20012442v-62.09903378c.89327777-3.89215624 3.90809026-9.60277892 6.60387496-11.99549792h-84.3030898c2.10558332 2.99887448 3.90809025 10.19298294 2.99886109 13.7980129-.30307639.89328176-18.59931934 66.5973455-18.90239573 67.20350098-1.19635416 3.5890785-6.89099996 11.10221616-10.79909022 14.10109064h35.10900675c-2.10558332-2.99887448-3.90809025-10.51201214-2.9988611-14.10109064z"/>
</svg>
