<svg xmlns="http://www.w3.org/2000/svg" viewBox="0 0 850 176">
  <g fill="#fff" stroke="#382321" stroke-width="8" stroke-linejoin="round" paint-order="stroke">
    <path d="M172.91604812 132.22316187c.55013055-1.43054748 2.42035994-3.2996961 3.07987317-4.0707333 1.4305539-1.86914862 2.9704905-3.51953286 4.39997201-5.27929928 2.75065275-3.2996961 5.50023311-6.82030132 8.02997574-10.33983417 1.53993658-2.09005775 2.97049049-4.1801155 4.29058933-6.3806278 5.38977805 8.91035906 11.76936213 19.47002999 11.8798172 19.68986674.76996828 1.32009291.65951322 3.96027874 0 5.16991709h15.5098209c-2.09006713-1.20963835-5.38977804-3.84982418-6.15974633-5.16991709-.11045507-.21983675-11.1098489-18.91990191-16.61008202-28.04902536.55013055-1.32009291 1.20964378-2.64018583 1.75977433-3.96027874 4.73026482-11.00041681 6.60049421-22.88018065 8.24981348-34.6505623.6605856-4.28949768 1.21071616-8.57899537 1.53993658-12.86956543.44074787-1.4294751 1.4305539-3.2996961 2.31097726-4.1801155h-38.72039714c0 5.0605349-.55013054 9.01974126-2.42035994 13.74998484 3.41016598-4.39995225 6.15974635-6.27017324 11.77043452-6.27017324h18.91998689c-1.65039165 13.97089396-3.19032823 28.38038905-8.91039909 41.24995448-2.9694181 6.38062781-6.37958408 12.32050973-10.67017341 17.93010033-2.30990488 3.07985934-4.8396475 6.15971867-7.58922787 8.91035906-1.53993658 1.53992967-3.08094555 3.18924153-4.73026482 4.61978901-.21983774.21983676-2.2005222 1.4294751-3.19032823 2.09005775 3.52062104 1.87022099 6.2702014 4.51040681 7.26000744 7.8101029zM284.09282083 73.92352646c-1.869157-4.73024358-2.41928756-8.7999045-2.41928756-13.8604394h-53.89992524c0 5.0605349-.55013055 9.13019582-2.42035994 13.8604394 3.41016597-4.39995226 6.15974634-6.27017325 11.77043451-6.27017325h19.68995518v7.59026616c0 8.35915861.32922043 16.82984417-1.32009884 25.07962059-2.75065274 14.3001129-12.10072732 25.62974867-20.3505408 37.28967575 3.3007833 2.09005775 5.50023312 5.5002084 6.49003915 8.58006774 3.19032824-6.82030131 7.70075531-12.98002 11.65997946-19.35957542 4.95010256-7.70072072 8.58010628-15.95049715 10.23049792-24.86085621 1.53993659-8.9092867 1.1002611-17.81964576 1.1002611-26.72893245V67.6533532h7.69968293c5.6096158 0 8.36026854 1.870221 11.76936213 6.27017325zM263.52351467 46.4235568c5.6096158 0 8.36026854 1.97960318 11.76936214 6.37955543-1.86915701-4.83962576-2.41928756-8.7999045-2.41928756-13.85936702h-36.3000372c0 5.05946252-.55013055 9.01974126-2.42035994 13.85936702 3.41016598-4.39995225 6.15974634-6.37955543 11.77043451-6.37955543h17.59988805zM298.63535568 55.77358938c3.41016597-4.39995226 6.15974634-6.27017325 11.7704345-6.27017325h25.41002605c5.60961579 0 8.35919615 1.870221 11.76936213 6.27017325-1.8702294-4.73024358-2.41928756-8.69052231-2.41928756-13.74998483h-44.11017519c0 5.05946252-.55013054 9.01974125-2.42035993 13.74998483zm14.18972207 68.0893415c5.38977805-3.2996961 10.56079073-6.92968351 15.07014543-11.44009033 9.13023683-9.13019582 14.4106322-21.56008774 18.26047366-33.65968833 1.53993658-4.73024357 2.86003542-9.01974126 3.84984146-13.74998483.3302928-1.4294751 1.42948152-4.06966093 2.42035994-5.05946252h-56.32028519c0 4.94900795-.55013055 9.01974126-2.42035994 13.74891245 3.41016598-4.39995225 6.15974635-6.26910086 11.77043452-6.26910086h35.96974439c-.43967549 0-3.19032823 10.88996225-3.63000372 11.98914603-1.32009884 3.96027874-2.74958037 7.92055747-4.61980976 11.65992708-4.84071988 10.11999741-12.21011 18.04055489-21.56018457 23.9804368-5.06055762 3.19031391-10.33988061 5.93988193-15.72965866 8.58006775-1.4305539.65951027-3.63000372 1.32009292-5.61068817.9898016 1.53993658 3.29969609 1.53993658 9.78970609.3302928 14.63040422 2.74958037-3.07985933 7.3704625-6.82030132 10.45033567-8.47068555 3.95922415-2.3098945 7.91952068-4.50933444 11.76936214-6.92968351zM373.6772376 60.06308706h-12.53933043c1.09918871 1.20963835 2.41928756 3.84982417 2.41928756 5.16991709v24.53056488c0 1.31902054-1.32009885 4.06966093-2.41928756 5.16991709h12.53933042c-1.1002611-1.10025616-2.41928756-3.85089655-2.41928756-5.16991709V65.23300415c0-1.32009292 1.31902646-3.96027874 2.41928756-5.16991709zm-3.63000373 76.22973574c-.21983774.11045456-.76996829.43967351-1.53993658.76996483 1.98068445 2.64018583 2.86003542 7.04013808 2.86003542 11.32963576 5.16994031-5.72004516 10.78062848-10.66905311 14.52001488-17.48935443 4.61980976-8.360231 6.92971464-17.81964576 7.92059305-27.3895151.98980604-8.6905223.7699683-17.37997224.7699683-26.07049455V38.39361713c0-2.64018583.43967548-8.36023099.98980603-10.5607433-5.28039536 4.39995225-6.2702014 4.84069814-11.77043451 6.3806278 2.2005222.9898016 2.97049049 3.07985934 2.97049049 4.39995226.10938268 9.67925152 0 32.11975866 0 38.82960542 0 14.18965834 1.09918872 29.47957284-4.39997201 42.90033872-2.42035994 6.15971868-6.60049421 12.5392741-12.32056507 15.94942477zM419.23941427 49.50341613h37.07000548c-2.30990487 6.49001-8.58010628 24.089819-8.58010628 24.42011033-.55013055 1.3200929-2.86003542 3.95920636-4.399972 5.05946252h12.8706956c-.6605856-1.10025616-1.1002611-3.73936961-.6605856-5.05946252.11045505-.33029133 9.35007457-26.51016807 9.46052963-26.8404594.43967548-1.3200929 2.74958036-3.96027873 4.28951695-5.05946251h-59.40015836c0 5.05946252-.55013055 9.01974125-2.42035994 13.74998483 3.41016598-4.39995226 6.16081872-6.27017325 11.77043452-6.27017325zm8.24981347 77.21953733c-1.42948152 2.3098945-4.39997201 4.39995225-5.9399086 4.95008033 1.65039165 3.1903139 3.41016598 11.54947252 3.63000372 14.62933186 1.75977433-4.28949769 6.49003915-10.2293796 9.01978177-14.51994967 3.3007833-5.38975384 4.95010256-11.54947252 5.83052592-17.7091912 1.1002611-8.14039422.88042335-19.47002998.88042335-24.63994707V70.5133758c0-2.7506404.54905817-8.360231.98980604-10.55967093-5.28039537 4.39995225-6.2702014 4.83962576-11.65997945 6.26910087 2.09006713 1.10025615 2.86003542 3.1903139 2.86003542 4.39995225v13.09047456c0 9.45941477.21983775 17.93010032-.76996829 26.83938701-.55013055 5.61066298-1.8702294 11.33070814-4.84071988 16.1703339zM549.66646667 111.87271248c-.21983774-.32921895-17.8197258-26.5090957-17.93018085-26.73000483-.98980604-1.32009291-1.20964378-4.06966093-.7699683-5.16991708H516.9964332c1.98068445 1.10025615 5.28039536 3.84982417 6.15974634 5.16991708.22091012.22090913 17.82079817 26.40078588 17.93018085 26.73000483.98980604 1.3200929 1.21071616 3.96027873.7699683 5.16991708H555.826213c-1.97961207-1.20963835-5.27932298-3.84982417-6.15974634-5.16991708zm-56.09937506-7.9194851c4.78495616-5.83049973 9.40476591-11.5505449 13.9141206-17.37997225v38.27947734c0 2.64018583-.54905816 8.24977642-.98980603 10.45028874 5.1699403-4.39995225 6.15974634-4.83962577 11.55059677-6.37955544-2.09006713-.99087396-2.86003542-3.0809317-2.86003542-4.40102462V76.45325772c8.24981347-11.109799 16.05995146-22.54988934 23.20950384-34.42965317h-24.64005775v-4.0707333c0-2.63911346.55013055-8.13932187 1.1002611-10.44921637-5.1699403 4.39995225-6.2702014 4.83962576-11.54952439 6.37955543 2.08899476.9898016 2.85896305 3.07985934 2.85896305 4.39995225v3.74044199H489.0019732c0 5.05946252-.44074787 9.01974125-2.30990488 13.85936702 3.4090936-4.39995225 6.15974634-6.37955544 11.65997945-6.37955544h26.17999433c-6.6004942 10.33983417-13.96988433 20.23999483-21.4508019 29.91924636-5.27932298 6.71091913-10.55971835 13.31031131-16.16933414 19.80032131-2.97049049 3.2996961-5.9399086 6.60046457-9.01978177 9.90016066-1.54100896 1.53992967-3.08094555 3.1903139-4.84071988 4.73024357 2.30990488 2.4192767 4.18013427 5.38975384 4.95010256 9.23957802 1.8702294-3.2996961 4.51042708-6.15971868 6.92971464-8.91035907 2.97049049-3.40907829 5.83052591-6.81922895 8.69056134-10.2293796h-.05469134zM575.81321725 86.79309189h12.5404028c-1.1002611-1.10025616-2.52974262-3.84982418-2.52974262-5.16991709V65.23300415c0-1.32009292 1.42948152-4.06966093 2.52974262-5.16991709h-12.5404028c.99087841 1.10025616 2.42035994 3.84982417 2.42035994 5.16991709V81.6231748c0 1.32009291-1.42948153 4.06966093-2.42035994 5.16991709zm-3.07987317-26.73000483h-12.53933043c1.09918872 1.10025616 2.52974262 3.84982417 2.52974262 5.16991709V81.6231748c0 1.32009291-1.4305539 4.06966093-2.52974262 5.16991709h12.53933043c-.98980604-1.10025616-2.41928756-3.84982418-2.41928756-5.16991709V65.23300415c0-1.32009292 1.42948152-4.06966093 2.41928756-5.16991709zm25.63093616 5.16991709v20.90057747c0 5.05946252-1.65039165 9.67925152-3.96029653 14.07920377-2.64019768 5.16991709-6.05036366 9.90016066-9.56991232 14.51994967-1.7608467 2.3098945-3.41016597 4.84069813-5.28039536 7.15059264 2.52974262 1.97960318 4.39997201 5.27929927 5.28039536 8.35915861.65951324-1.75976642 2.64019769-4.50933444 2.96941811-5.05946252 1.65039165-2.42034907 3.3007833-4.83962576 5.06055763-7.25997483 3.63000372-5.28037165 7.26000744-10.6701255 9.90020512-16.61000741 2.08899475-4.73024357 3.4090936-9.6803239 3.4090936-14.85024099l.11045506-21.44963317c0-2.64018583.43967548-8.24977642.98980603-10.55967093-5.27932298 4.39995225-6.37958408 4.83962577-11.76936213 6.37955543 2.19944982.9898016 2.86003543 3.07985934 2.86003543 4.39995226zM619.61561959 115.72253665h12.64978549c-1.09918872-1.20963835-2.52974262-3.84982417-2.52974262-5.16991709V33.00279091c0-1.31902053 1.4305539-4.06966092 2.52974262-5.16991708h-12.64978549c1.1002611 1.10025616 2.52974262 3.85089655 2.52974262 5.16991708v77.54982865c0 1.32009292-1.42948152 3.96027874-2.52974262 5.16991709zm24.53067506-47.18983641c2.86003543 2.09005775 5.49916073 4.73024357 7.47984519 7.70072072.76996829 1.20963835 1.64931926 2.4192767 1.97961207 3.84982417.3302928-3.84982417 1.32009884-8.24977642 2.64019768-11.44009032-2.30990488-2.3098945-4.73026482-4.51040682-7.3704625-6.37955544-2.86003543-1.98067555-6.04929128-3.62998741-9.35007457-4.84069813-2.6391253-.87934703-5.38977805-.9898016-7.91952067-1.64931186.21983774 2.19943993 0 5.6095906-.66058561 8.3591586 4.51042707-.87934702 9.68036738 1.98067557 13.20098841 4.39995226zM667.37831846 47.19352163v24.1992012c0 1.3200929-1.32009884 3.96027873-2.42035994 5.16991708h12.5404028c-.99087841-1.20963835-2.42035994-3.84982418-2.42035994-5.16991709V49.50341613h35.6394516c.11045505 8.46961318.11045505 17.04968093-.98980605 25.40991192-1.32009884 9.67925152-4.0696792 22.11021581-13.63959152 26.83938701v.11045457c-7.69968293 3.7393696-19.90979293.98980159-22.11031512-7.81010291-1.97961208 3.51953285-4.8396475 5.05946252-8.36026854 5.6095906 4.39997201 6.60046456 10.89001116 11.22025356 19.14089701 12.10067296 8.46965122.87934703 16.49962696-1.98067555 22.2196978-8.24977642 7.14955239-7.92055747 9.56991233-19.25019323 10.67017342-29.5900274.98980604-9.35003258.7699683-18.70006516.87935098-28.1605523.44074787-1.32009292 1.4305539-2.86002259 2.2005222-3.73936961h-55.77015464c1.1002611 1.09918378 2.42035994 3.84982417 2.42035994 5.16991708zM741.92476117 71.39272282c-2.30990488 0-5.05948525-1.32009291-6.37958409-2.63911345-.6605856 3.84982417-2.86003542 7.80903054-6.38065646 11.43901795 2.30990488-.43967351 7.92059305-.76996483 10.56079073-.76996483h35.08717628c2.31633915 0 5.28682964 1.53992967 6.38065646 2.64018582.9865889-3.95920636 3.07772842-7.8101029 6.38065647-11.54947251-2.30561536.55012807-7.91415878.87934702-10.5629355.87934702h-35.0861039zM803.82034601 71.8334687c.10723792-.21983675 4.62195451-16.17033389 6.27341854-22.22067037h12.42887537c.10723792 6.49001.10723792 13.09047456.10723792 19.68986674 0 9.13019583 0 18.26039165-1.86593987 27.17075072-1.87666367 9.78970609-6.82033196 17.93010032-11.65676232 26.3997135-2.31633915 3.96027874-4.40747867 7.9194851-6.27341854 11.9902184l-1.98390159 4.61978901c3.63536562.9898016 6.48789439 3.62998742 7.592445 6.70984675.4396755-3.62998741 2.09113952-7.25997483 3.63536562-10.55967092 1.86593987-4.0707333 3.95707939-7.92055748 6.15545682-11.77038165 4.72919244-8.46961318 8.80423355-16.94029873 10.5629355-26.61955026 1.64074023-9.24065039 1.5335023-18.59068297 1.5335023-27.94071555V46.532939c.33243757-1.4294751 1.43698818-3.51953285 2.42357708-4.39995225h-30.90596963c.76138926 1.10025615 1.42626439 3.74044198 1.09382682 5.0605349-.10723792.32921894-6.82033195 24.42011031-6.92756987 24.63994707-.43967549 1.32009291-2.530815 4.06966093-3.95707939 5.16991708h12.86855085c-.77211305-1.10025615-1.43698817-3.84982417-1.10455061-5.16991708z"/>
    <path d="M72.96130706 108.3500297l26.11405712 42.89935682 24.57340478-17.10119809-31.19820983-40.19551875 47.37505937-9.9063697-7.7802943-27.29258777-46.21957012 14.99821292 2.15691327-47.10532717H57.6318163l2.46504374 47.10532717L13.56915946 56.7537122 6.019963 84.04629997l47.14396153 9.9063697-30.89007937 40.19551876 24.57340478 17.1011981 26.11405712-42.89935684z"/>
  </g>
</svg>
